<svg width="324" height="180" viewBox="0 0 324 180" fill="none" xmlns="http://www.w3.org/2000/svg">
<g clip-path="url(#clip0_1_2)">
<rect x="154.39" y="99" width="18" height="18" transform="rotate(43.499 154.39 99)" fill="#F37D50"/>
<rect x="154.409" y="99.7069" width="17" height="17" transform="rotate(43.499 154.409 99.7069)" stroke="black" stroke-opacity="0.08"/>
<rect x="155.013" y="118" width="16" height="16" transform="rotate(43.499 155.013 118)" fill="#F4EFD3"/>
<rect x="155.032" y="118.707" width="15" height="15" transform="rotate(43.499 155.032 118.707)" stroke="black" stroke-opacity="0.13"/>
<path d="M42.135 45.2V90H33.623L11.287 62.8V90H1.047V45.2H9.623L31.895 72.4V45.2H42.135ZM110.398 90.768C103.998 90.768 99.0065 88.9973 95.4225 85.456C91.8812 81.9147 90.1105 76.8587 90.1105 70.288V45.2H100.478V69.904C100.478 77.9253 103.806 81.936 110.462 81.936C113.705 81.936 116.18 80.976 117.886 79.056C119.593 77.0933 120.446 74.0427 120.446 69.904V45.2H130.686V70.288C130.686 76.8587 128.894 81.9147 125.31 85.456C121.769 88.9973 116.798 90.768 110.398 90.768ZM219.46 90L219.396 63.12L206.212 85.264H201.54L188.42 63.696V90H178.692V45.2H187.268L204.036 73.04L220.548 45.2H229.06L229.188 90H219.46ZM307.081 80.4H286.281L282.313 90H271.689L291.657 45.2H301.897L321.929 90H311.049L307.081 80.4ZM303.817 72.528L296.713 55.376L289.609 72.528H303.817Z" fill="black"/>
<path d="M186.721 130.144C185.057 130.144 183.553 129.776 182.209 129.04C180.881 128.304 179.833 127.288 179.065 125.992C178.313 124.68 177.937 123.216 177.937 121.6C177.937 119.984 178.313 118.528 179.065 117.232C179.833 115.92 180.889 114.896 182.233 114.16C183.577 113.424 185.081 113.056 186.745 113.056C187.993 113.056 189.145 113.264 190.201 113.68C191.257 114.096 192.153 114.704 192.889 115.504L191.761 116.632C190.449 115.304 188.793 114.64 186.793 114.64C185.465 114.64 184.257 114.944 183.169 115.552C182.081 116.16 181.225 116.992 180.601 118.048C179.993 119.104 179.689 120.288 179.689 121.6C179.689 122.912 179.993 124.096 180.601 125.152C181.225 126.208 182.081 127.04 183.169 127.648C184.257 128.256 185.465 128.56 186.793 128.56C188.809 128.56 190.465 127.888 191.761 126.544L192.889 127.672C192.153 128.472 191.249 129.088 190.177 129.52C189.121 129.936 187.969 130.144 186.721 130.144ZM209.427 130.144C207.763 130.144 206.251 129.776 204.891 129.04C203.547 128.288 202.491 127.264 201.723 125.968C200.971 124.672 200.595 123.216 200.595 121.6C200.595 119.984 200.971 118.528 201.723 117.232C202.491 115.936 203.547 114.92 204.891 114.184C206.251 113.432 207.763 113.056 209.427 113.056C211.091 113.056 212.587 113.424 213.915 114.16C215.259 114.896 216.315 115.92 217.083 117.232C217.851 118.528 218.235 119.984 218.235 121.6C218.235 123.216 217.851 124.68 217.083 125.992C216.315 127.288 215.259 128.304 213.915 129.04C212.587 129.776 211.091 130.144 209.427 130.144ZM209.427 128.56C210.755 128.56 211.955 128.264 213.027 127.672C214.099 127.064 214.939 126.232 215.547 125.176C216.155 124.104 216.459 122.912 216.459 121.6C216.459 120.288 216.155 119.104 215.547 118.048C214.939 116.976 214.099 116.144 213.027 115.552C211.955 114.944 210.755 114.64 209.427 114.64C208.099 114.64 206.891 114.944 205.803 115.552C204.731 116.144 203.883 116.976 203.259 118.048C202.651 119.104 202.347 120.288 202.347 121.6C202.347 122.912 202.651 124.104 203.259 125.176C203.883 126.232 204.731 127.064 205.803 127.672C206.891 128.264 208.099 128.56 209.427 128.56ZM227.976 113.2H229.752V128.464H239.16V130H227.976V113.2ZM259.749 128.464V130H247.869V113.2H259.389V114.736H249.645V120.712H258.333V122.224H249.645V128.464H259.749ZM281.422 121.6H283.126V128.008C282.342 128.696 281.414 129.224 280.342 129.592C279.27 129.96 278.142 130.144 276.958 130.144C275.278 130.144 273.766 129.776 272.422 129.04C271.078 128.304 270.022 127.288 269.254 125.992C268.486 124.68 268.102 123.216 268.102 121.6C268.102 119.984 268.486 118.528 269.254 117.232C270.022 115.92 271.078 114.896 272.422 114.16C273.766 113.424 275.286 113.056 276.982 113.056C278.262 113.056 279.438 113.264 280.51 113.68C281.582 114.08 282.486 114.68 283.222 115.48L282.118 116.608C280.79 115.296 279.102 114.64 277.054 114.64C275.694 114.64 274.462 114.944 273.358 115.552C272.27 116.144 271.414 116.976 270.79 118.048C270.166 119.104 269.854 120.288 269.854 121.6C269.854 122.912 270.166 124.096 270.79 125.152C271.414 126.208 272.27 127.04 273.358 127.648C274.446 128.256 275.67 128.56 277.03 128.56C278.758 128.56 280.222 128.128 281.422 127.264V121.6ZM293.912 113.2H295.688V130H293.912V113.2ZM314.258 130.144C312.594 130.144 311.082 129.776 309.722 129.04C308.378 128.288 307.322 127.264 306.554 125.968C305.802 124.672 305.426 123.216 305.426 121.6C305.426 119.984 305.802 118.528 306.554 117.232C307.322 115.936 308.378 114.92 309.722 114.184C311.082 113.432 312.594 113.056 314.258 113.056C315.922 113.056 317.418 113.424 318.746 114.16C320.09 114.896 321.146 115.92 321.914 117.232C322.682 118.528 323.066 119.984 323.066 121.6C323.066 123.216 322.682 124.68 321.914 125.992C321.146 127.288 320.09 128.304 318.746 129.04C317.418 129.776 315.922 130.144 314.258 130.144ZM314.258 128.56C315.586 128.56 316.786 128.264 317.858 127.672C318.93 127.064 319.77 126.232 320.378 125.176C320.986 124.104 321.29 122.912 321.29 121.6C321.29 120.288 320.986 119.104 320.378 118.048C319.77 116.976 318.93 116.144 317.858 115.552C316.786 114.944 315.586 114.64 314.258 114.64C312.93 114.64 311.722 114.944 310.634 115.552C309.562 116.144 308.714 116.976 308.09 118.048C307.482 119.104 307.178 120.288 307.178 121.6C307.178 122.912 307.482 124.104 308.09 125.176C308.714 126.232 309.562 127.064 310.634 127.672C311.722 128.264 312.93 128.56 314.258 128.56Z" fill="black"/>
<rect x="154.144" y="104" width="22" height="22" transform="rotate(43.499 154.144 104)" fill="#58BDC3"/>
<line x1="0.992858" y1="121" x2="141.989" y2="119.993" stroke="#58BDC3" stroke-width="2"/>
</g>
<defs>
<clipPath id="clip0_1_2">
<rect width="324" height="180" fill="white"/>
</clipPath>
</defs>
</svg>
